<?xml version="1.0" encoding="utf-8"?>
<!-- Generator: Adobe Illustrator 16.0.3, SVG Export Plug-In . SVG Version: 6.00 Build 0)  -->
<!DOCTYPE svg PUBLIC "-//W3C//DTD SVG 1.1 Tiny//EN" "http://www.w3.org/Graphics/SVG/1.1/DTD/svg11-tiny.dtd">
<svg version="1.1" baseProfile="tiny" xmlns="http://www.w3.org/2000/svg" xmlns:xlink="http://www.w3.org/1999/xlink" x="0px"
	 y="0px" width="1431.811px" height="1431.811px" viewBox="-512.001 -618.453 1431.811 1431.811" xml:space="preserve">
<g id="Layer_3" display="none">
	<path display="inline" d="M885.676-203.318H-70.058c-19.342,0-34.133,14.792-34.133,34.134v136.533h1024v-136.533
		C919.809-188.527,905.018-203.318,885.676-203.318z M-47.303,627.26c0,44.373,36.409,79.645,79.645,79.645h750.934
		c44.373,0,79.645-35.271,79.645-79.645V24.237H-47.303V627.26z M237.142,138.016h341.334v113.777H237.142V138.016z"/>
	<path display="inline" d="M-512,286.631c0,66.91,54.268,121.178,121.177,121.178c33.456,0,63.74-13.553,85.684-35.496l1.938,1.932
		l155.282-155.281c51.417,25.444,109.026,40.129,170.179,40.129c212.565,0,385.548-172.979,385.548-385.544
		C407.809-339.021,234.826-512,22.26-512c-212.566,0-385.544,172.979-385.544,385.548c0,61.103,14.685,118.762,40.128,170.178
		l-155.282,155.283l1.934,1.938C-498.447,222.837-512,253.17-512,286.631z M-253.128-126.452
		c0-151.844,123.5-275.394,275.389-275.394c151.898,0,275.39,123.55,275.39,275.394c0,151.835-123.491,275.389-275.39,275.389
		C-129.629,148.937-253.128,25.383-253.128-126.452z"/>
</g>
<g id="Layer_1">
	<path fill="#FFFFFF" d="M-70.058-203.318h326.781c7.104,24.407,10.927,50.198,10.927,76.867c0,32.921-5.814,64.509-16.456,93.8
		h-355.386v-136.533C-104.191-188.527-89.4-203.318-70.058-203.318z M22.26,118.937c96.294,0,137.908-29.536,201.394-94.7H-47.303
		v85.795C-25.075,115.837-1.764,118.937,22.26,118.937z M406.126,24.237H862.92V627.26c0,44.373-35.271,79.645-79.645,79.645H32.342
		c-43.235,0-79.645-35.271-79.645-79.645V278.654c22.549,4.209,45.787,6.438,69.563,6.438c79.488,0,153.439-20.191,214.881-61.593
		v28.293h341.334V138.016H331.527C362.675,105.026,388.081,66.563,406.126,24.237z M885.676-203.318h-455.57
		c5.049,24.847,7.703,50.553,7.703,76.867c0,32.341-4.012,63.762-11.55,93.8h493.55v-136.533
		C919.809-188.527,905.018-203.318,885.676-203.318z"/>
	<path fill="#FFFFFF" d="M-512,286.631c0,66.91,54.268,121.178,121.177,121.178c33.456,0,63.74-13.553,85.684-35.496l1.938,1.932
		l155.282-155.281c51.417,25.444,109.026,40.129,170.179,40.129c212.565,0,385.548-172.979,385.548-385.544
		C407.809-339.021,234.826-512,22.26-512c-212.566,0-385.544,172.979-385.544,385.548c0,61.103,14.685,118.762,40.128,170.178
		l-155.282,155.283l1.934,1.938C-498.447,222.837-512,253.17-512,286.631z M-253.128-126.452
		c0-151.844,123.5-275.394,275.389-275.394c151.898,0,275.39,123.55,275.39,275.394c0,151.835-123.491,275.389-275.39,275.389
		C-129.629,148.937-253.128,25.383-253.128-126.452z"/>
</g>
</svg>
